<svg xmlns="http://www.w3.org/2000/svg" viewBox="0 0 500 500"><g id="freepik--light-bulb-3--inject-5"><path d="M454.84,401.65a55.84,55.84,0,1,0-93.53,12.05c-2.8,6-6,12.76-6,12.76l44.34,20.72s3.62-7,6.7-13.38A55.83,55.83,0,0,0,454.84,401.65Z" style="fill:#F9C728"></path><path d="M373.16,434.46c7.37-16.42,15.81-32.35,22.9-48.9,1.45-3.4,2.87-6.83,4.06-10.34,1.65-4.9,3-10.64-.55-15.07a7.57,7.57,0,0,0-5.89-3,10.41,10.41,0,0,0-6.74,3.12A24.47,24.47,0,0,0,380,372.64a25.35,25.35,0,0,0,8.4,25.52,25.72,25.72,0,0,0,26.27,4c8.11-3.51,15.18-11.89,15.5-21,.14-3.84-1.15-8.46-4.92-10.2-4.54-2.1-8.91,1-11.68,4.49-3,3.66-5.22,8-7.5,12.06-2.56,4.6-5,9.27-7.37,14-4.9,9.65-9.57,19.41-14.48,29.05-1.09,2.13-2.18,4.25-3.3,6.37-.75,1.42,1.4,2.68,2.16,1.26,9-17,16.76-34.64,26.27-51.37,2.14-3.74,4.22-7.86,7.24-11,1.4-1.46,3.19-2.89,5.29-3a4.88,4.88,0,0,1,4.43,2.37c2.11,3.36,1.51,7.73.22,11.26a24,24,0,0,1-7.21,10,23,23,0,0,1-37.53-17.62,24.13,24.13,0,0,1,3.44-12.48c2-3.36,6.64-8.76,11-5.88,4.63,3.06,3,9.48,1.55,13.78-1,3.07-2.24,6.09-3.49,9.07-6.49,15.37-14.19,30.21-21.23,45.33Q372,430.9,371,433.2c-.65,1.46,1.51,2.73,2.16,1.26Z" style="fill:#263238"></path><path d="M367.17,414.44a5.76,5.76,0,0,1-.5-.47c-.31-.33-.8-.79-1.36-1.43a49.84,49.84,0,0,1-4.46-5.72,52.77,52.77,0,0,1-5-9.51,52,52,0,0,1-1-36.38,50.12,50.12,0,0,1,2.82-6.68c.38-.77.74-1.33.95-1.73a4.85,4.85,0,0,1,.36-.58,5.69,5.69,0,0,1-.29.62c-.19.41-.52,1-.87,1.76a54.46,54.46,0,0,0-2.7,6.7,52.74,52.74,0,0,0-2.32,10.44,53.37,53.37,0,0,0,12.64,41c.54.66,1,1.14,1.3,1.48A4.33,4.33,0,0,1,367.17,414.44Z" style="fill:#263238"></path><path d="M365.63,343.3a11,11,0,0,1-1.66,2.37,10.71,10.71,0,0,1-2,2.12,10.15,10.15,0,0,1,1.66-2.37A10.38,10.38,0,0,1,365.63,343.3Z" style="fill:#263238"></path><path d="M443.75,410.79a3.09,3.09,0,0,1,.33-.5l1-1.37c.22-.3.47-.62.73-1s.51-.78.8-1.22c.55-.89,1.25-1.86,1.84-3,.32-.57.65-1.18,1-1.81s.62-1.32,1-2c.69-1.39,1.23-3,1.85-4.58a58.1,58.1,0,0,0,2.57-11,59.22,59.22,0,0,0,.22-11.3c-.2-1.72-.34-3.37-.67-4.89-.15-.75-.25-1.5-.43-2.19s-.35-1.37-.51-2c-.29-1.29-.72-2.4-1-3.4-.17-.49-.31-1-.47-1.38l-.47-1.13-.64-1.57a4.18,4.18,0,0,1-.2-.57,3.61,3.61,0,0,1,.27.53c.18.39.42.9.71,1.55.16.34.33.71.51,1.12s.32.88.5,1.38a32.33,32.33,0,0,1,1.1,3.39c.18.64.36,1.31.55,2s.29,1.44.45,2.2c.34,1.52.5,3.18.71,4.92a57.56,57.56,0,0,1-.19,11.38,58.14,58.14,0,0,1-2.62,11.07,49.63,49.63,0,0,1-1.9,4.59c-.34.7-.63,1.39-1,2l-1,1.81a34.75,34.75,0,0,1-1.91,3c-.29.44-.55.85-.82,1.21l-.77,1-1.07,1.32A4,4,0,0,1,443.75,410.79Z" style="fill:#263238"></path><g id="freepik--2ggvdetif--inject-5"><path d="M355.69,458a15.59,15.59,0,0,1,1.7,3.92,3.27,3.27,0,0,0,1.83,2.22l8.92,4.16a3.32,3.32,0,0,0,3.12-.15,6.15,6.15,0,0,1,4.16-.95Z" style="fill:#455a64"></path></g><path d="M357.62,428.6c-.09.18-4.52,15.09-6.21,20.79a7.25,7.25,0,0,0,1.33,6.77A6.93,6.93,0,0,0,355,457.9l19.53,9.1s5.1,2.38,8.14-1.12c3.21-3.7,13.32-19.37,13.32-19.37Z" style="fill:#263238"></path><rect x="367.12" y="435.86" width="2.25" height="39.66" rx="1.07" transform="translate(-199.89 598.82) rotate(-65.2)" style="fill:#e0e0e0"></rect><path d="M384.81,464.59a1.29,1.29,0,0,0,.8,0,1.09,1.09,0,0,0,.63-.7,1,1,0,0,0-.32-1.16c-1.84-.89-4.61-2.1-8-3.65L351.61,447a.87.87,0,0,0-.84,0,.89.89,0,0,0-.3.31,1.5,1.5,0,0,0-.16.43.89.89,0,0,0,.29.78,5.41,5.41,0,0,0,.87.44l3.7,1.71,7,3.24,11.81,5.5,8,3.74,2.16,1,.55.28.19.11-.2-.07-.57-.25-2.19-1-8-3.63L362,454.24,355,451l-3.7-1.71-.47-.21a1.8,1.8,0,0,1-.49-.29,1.25,1.25,0,0,1-.41-1.1,1.62,1.62,0,0,1,.2-.56,1.29,1.29,0,0,1,.43-.44,1.24,1.24,0,0,1,1.18-.07l26.29,12.2c3.36,1.59,6.08,2.82,8,3.78a1.13,1.13,0,0,1,.33,1.31,1.19,1.19,0,0,1-.71.73A.94.94,0,0,1,384.81,464.59Z" style="fill:#263238"></path><rect x="369.17" y="430.68" width="2.25" height="41.25" rx="1.07" transform="translate(-194.71 598.13) rotate(-65.2)" style="fill:#e0e0e0"></rect><path d="M387.58,460.53a1.15,1.15,0,0,0,.82,0,1.11,1.11,0,0,0,.63-.75,1,1,0,0,0-.44-1.17l-8.3-3.77-27.35-12.59a.9.9,0,0,0-.87.07,1,1,0,0,0-.3.34,1.17,1.17,0,0,0-.14.45.91.91,0,0,0,.37.78c.26.15.64.3.95.45l3.83,1.77,7.26,3.37,12.27,5.71,8.26,3.88,2.24,1.07.57.29.2.11s-.08,0-.21-.07l-.59-.26-2.27-1-8.31-3.77-12.3-5.65-7.27-3.34-3.84-1.77c-.33-.17-.63-.27-1-.49a1.24,1.24,0,0,1-.53-1.09,1.41,1.41,0,0,1,.18-.59,1.27,1.27,0,0,1,.41-.48,1.28,1.28,0,0,1,1.23-.1l27.31,12.68c3.49,1.64,6.31,3,8.27,3.89a1.15,1.15,0,0,1,.47,1.33,1.24,1.24,0,0,1-.71.78A.94.94,0,0,1,387.58,460.53Z" style="fill:#263238"></path><path d="M390.08,456.35l-36.43-16.83a1.08,1.08,0,0,1-.52-1.42l.05-.1a1.08,1.08,0,0,1,1.42-.53L391,454.31a1.07,1.07,0,0,1,.52,1.42l-.05.1A1.06,1.06,0,0,1,390.08,456.35Z" style="fill:#e0e0e0"></path><path d="M390.08,456.35a1.1,1.1,0,0,0,.85,0,1.11,1.11,0,0,0,.62-.78,1,1,0,0,0-.52-1.16l-8.5-3.87-28-12.88a.91.91,0,0,0-.89.08,1,1,0,0,0-.3.36,1,1,0,0,0-.12.46.88.88,0,0,0,.43.77c.29.15.65.31,1,.46l3.93,1.82L366,445l12.57,5.85,8.45,4,2.3,1.1.59.29.19.11-.21-.07-.61-.27-2.32-1-8.5-3.87-12.6-5.78-7.43-3.42-3.93-1.81c-.34-.16-.66-.3-1-.48a1.27,1.27,0,0,1-.61-1.09,1.44,1.44,0,0,1,.16-.6,1.28,1.28,0,0,1,.42-.5,1.25,1.25,0,0,1,1.25-.12l28,13,8.46,4a1.12,1.12,0,0,1,.56,1.31,1.25,1.25,0,0,1-.7.82A1,1,0,0,1,390.08,456.35Z" style="fill:#263238"></path><rect x="373.26" y="420.58" width="2.25" height="43.89" rx="1.07" transform="translate(-184.37 596.75) rotate(-65.2)" style="fill:#e0e0e0"></rect><path d="M392.87,452.3a1.14,1.14,0,0,0,.88,0,1.17,1.17,0,0,0,.61-.83,1,1,0,0,0-.65-1.15l-8.82-4-29.06-13.36a.88.88,0,0,0-.91.1,1.08,1.08,0,0,0-.39.87.9.9,0,0,0,.52.75l1,.48,4.07,1.88,7.71,3.57,13,6.07,8.77,4.12,2.38,1.13.62.31.2.11-.22-.08L392,452l-2.41-1.07-8.82-4-13.06-6L360,437.32l-4.07-1.88-1-.48a1.27,1.27,0,0,1-.73-1.06,1.21,1.21,0,0,1,.13-.65,1.33,1.33,0,0,1,.4-.53,1.25,1.25,0,0,1,1.29-.14L385,446l8.78,4.12a1.13,1.13,0,0,1,.69,1.3,1.25,1.25,0,0,1-.68.88,1.16,1.16,0,0,1-.69.06A.9.9,0,0,1,392.87,452.3Z" style="fill:#263238"></path><path d="M358.31,414.27c-.17.36-3.34,9.27-5,13.85a5.81,5.81,0,0,0,.55,5.05l1.39,2.22L393,453l2.55-.35a5.83,5.83,0,0,0,4.26-2.88l7.3-12.72Z" style="fill:#F9C728"></path><g style="opacity:0.30000000000000004"><path d="M352.05,449.35a53.92,53.92,0,0,0,10.84,6.12c3.23,1.49,6.35,3,9.88,4.61,2.59,1.14,5,2.11,7.61,3.19a7.91,7.91,0,0,0,3.27.75Z"></path></g><g style="opacity:0.30000000000000004"><path d="M352.76,444.31a62.9,62.9,0,0,0,11.72,6.53c3.48,1.61,6.84,3.29,10.65,5,2.78,1.24,5.39,2.3,8.19,3.47a8.79,8.79,0,0,0,3.51.85Z"></path></g><g style="opacity:0.30000000000000004"><path d="M354.79,440a62.34,62.34,0,0,0,11.72,6.53c3.48,1.61,6.85,3.29,10.65,5,2.79,1.24,5.39,2.3,8.2,3.47a8.78,8.78,0,0,0,3.5.85Z"></path></g><g style="opacity:0.30000000000000004"><path d="M356.82,435.59a63.25,63.25,0,0,0,11.72,6.54c3.48,1.6,6.85,3.28,10.65,5,2.79,1.23,5.39,2.29,8.2,3.46a8.78,8.78,0,0,0,3.5.85Z"></path></g><g style="opacity:0.30000000000000004"><path d="M358.31,414.27c-.17.36-3.34,9.27-5,13.85a5.81,5.81,0,0,0,.55,5.05l1.39,2.22L393,453l2.55-.35a5.83,5.83,0,0,0,4.26-2.88l7.3-12.72Z"></path></g><path d="M398.07,451.15c0,.09-10.17-4.54-22.63-10.35S352.93,430.21,353,430.12s10.17,4.54,22.63,10.35S398.11,451.06,398.07,451.15Z" style="fill:#263238"></path><path d="M407,436.66c0,.11-11.07-4.88-24.62-11.14s-24.5-11.41-24.46-11.51,11.07,4.89,24.62,11.14S407,436.56,407,436.66Z" style="fill:#263238"></path><polygon points="425.95 338.13 416.48 350.89 408.86 355.86 399.66 353.27 396.26 348.31 378.31 350.56 387.15 332.86 382.62 332.14 389.56 330.11 411.77 328.19 420.5 336.99 425.95 338.13" style="opacity:0.2"></polygon><polygon points="369.79 417.93 378.31 396.26 367.17 373.54 375.42 360.33 389.14 351.94 413.66 363.39 443.75 368.21 442.1 391.12 430.64 411.2 398.07 421.33 394.49 431.41 369.79 417.93" style="fill:#F9C728;opacity:0.6000000000000001"></polygon></g><g id="freepik--light-bulb-2--inject-5"><polygon points="207.45 244.33 212.04 215.92 247.34 199.84 257.23 164.18 287.94 139.47 306.66 170.89 340.55 141.23 359.67 160.92 336.77 240.78 283.56 278.36 239.89 276.01 207.45 244.33" style="fill:#F9C728"></polygon><polygon points="207.45 244.33 212.04 215.92 247.34 199.84 257.23 164.18 287.94 139.47 306.66 170.89 340.55 141.23 359.67 160.92 336.77 240.78 283.56 278.36 239.89 276.01 207.45 244.33" style="opacity:0.2"></polygon><path d="M377.36,216.54a116.5,116.5,0,0,0-48.91-98.36L342,153.59,331,180.07H318.66l-14.12,13.06-15.54,29-36,4.59-16.59,28.6-10.24-6.71-4.94-24.36L204.27,220l-21.54,4.24-13.06-31.07S154.74,186,148,183.45a116.58,116.58,0,0,0,60,133.74c-.4,13.81-.85,29.41-.85,29.41l102.16,2.95s1.1-16.48,1.75-31.21A116.57,116.57,0,0,0,377.36,216.54Z" style="fill:#F9C728"></path><path d="M331,180.07,342,153.59l-13.52-35.41s5.1,10.18,9.36,19.88c3.71,8.45,6.67,16.58,6.61,16.78-1.59,4.84-10.15,25.84-10.15,25.84l-3.25-.61" style="opacity:0.30000000000000004"></path><path d="M274.14,350.25c.55-18.25.46-36.53.52-54.79.06-20,.12-40.09.85-60.12.31-8.25.72-16.5,1.49-24.73.39-4.12.85-8.25,1.58-12.34,1-5.59,2.62-11.49,6.35-15.93,3.25-3.86,8.16-6.76,13.34-6.48s9.14,4.2,11.52,8.59c4.66,8.61,5.45,19.55,4,29.07a56.47,56.47,0,0,1-11.82,26.84,51.23,51.23,0,0,1-25.27,16.73,56.57,56.57,0,0,1-30.62.34,51,51,0,0,1-25.31-15.9,56.51,56.51,0,0,1-12.68-26.83c-1.71-9.49-1.19-20.29,3.43-28.92,2.24-4.17,5.46-8.14,9.83-10.18a12.44,12.44,0,0,1,12.37,1.06c3.54,2.45,5.69,6.57,7.08,10.54a60.72,60.72,0,0,1,2.81,13.54c2.31,21.19,2.79,42.58,3.11,63.88.34,22.78.26,45.57.72,68.35q.15,7.5.41,15c.06,1.61,2.56,1.62,2.5,0-.83-23.12-.74-46.27-1-69.41s-.5-46.14-2.44-69.11c-.79-9.45-1.32-19.65-6-28.13a18,18,0,0,0-9.27-8.53,15.15,15.15,0,0,0-13.44,1.68c-8.73,5.59-12.43,16.35-13.27,26.2a58.09,58.09,0,0,0,5.77,30A55.57,55.57,0,0,0,231,253.6a57.87,57.87,0,0,0,61.27-1,55.17,55.17,0,0,0,19.45-23.41,58.16,58.16,0,0,0,4.85-30c-1.06-9.45-4.66-22.09-14.93-25.21-5-1.53-10.54.1-14.67,3.15-4.64,3.42-7.49,8.46-9.19,13.89a83.92,83.92,0,0,0-2.83,15.58c-.43,3.84-.75,7.7-1,11.56-1.37,19.76-1.53,39.6-1.66,59.4-.14,20.19,0,40.39-.34,60.58q-.09,6.09-.26,12.17c-.05,1.61,2.45,1.61,2.5,0Z" style="fill:#263238"></path><polygon points="316.72 181.87 304.54 193.13 291.06 220.85 252.99 226.67 236.4 255.27 226.16 248.56 221.22 224.2 205.73 220.33 219.57 260.12 231.38 264.98 233.9 347.37 283.56 348.8 283.56 276.17 329.3 236.7 316.72 181.87" style="fill:#F9C728;opacity:0.6000000000000001"></polygon><polygon points="322.62 294.98 322.24 280.59 312.64 279.5 322.69 276.56 331.92 260.21 328.31 235.69 342.43 241.87 359.67 237.8 355.7 241.16 355 264.86 324.87 288.23 322.62 294.98" style="opacity:0.2"></polygon><path d="M148,183.45a16.62,16.62,0,0,1,1.78,2.13l0-.05c2.11,1,5.45,2.69,9.18,4.62s7.24,3.77,9.29,4.9l-.19,0a14.86,14.86,0,0,1,1.62-2,14.51,14.51,0,0,1-1.37,2.15l-.08.1-.12-.06c-2.11-1-5.54-2.73-9.39-4.71s-7-3.67-9.09-4.8l0,0,0,0A20.51,20.51,0,0,1,148,183.45Z" style="fill:#263238"></path><path d="M182.73,224.2a2.5,2.5,0,0,1-.2.69l-.73,1.89-.11.3-.14-.3c-1.33-2.9-3.68-8.29-6.33-14.46-2-4.7-3.81-9-5.08-12.07l-1.49-3.69a8.33,8.33,0,0,1-.48-1.37,6.64,6.64,0,0,1,.67,1.29l1.64,3.62c1.36,3.07,3.21,7.31,5.22,12,2.64,6.17,4.91,11.59,6.1,14.56h-.25c.34-.74.62-1.35.84-1.85A2.86,2.86,0,0,1,182.73,224.2Z" style="fill:#263238"></path><path d="M204.27,220a12.8,12.8,0,0,1,0,2.34v.11l-.12,0c-2.18.51-5.78,1.28-9.86,2.1-3.36.67-6.41,1.26-8.62,1.65-1.11.2-2,.36-2.63.45a3.38,3.38,0,0,1-1,.09,3.48,3.48,0,0,1,.93-.29l2.59-.61c2.2-.49,5.23-1.13,8.59-1.8,4.09-.82,7.71-1.51,9.91-1.88l-.12.14A12.23,12.23,0,0,1,204.27,220Z" style="fill:#263238"></path><path d="M221.22,224.2a9.46,9.46,0,0,1-1.11,1.62l-.06.07H220c-1.6-.28-4.11-.77-6.92-1.36-2.43-.51-4.63-1-6.22-1.39a13.59,13.59,0,0,1-2.54-.72,13.22,13.22,0,0,1,2.62.36c1.6.29,3.81.73,6.25,1.24,2.81.59,5.3,1.16,6.87,1.55l-.15.06A8.28,8.28,0,0,1,221.22,224.2Z" style="fill:#263238"></path><path d="M236.43,255.45a5.21,5.21,0,0,1-1-.33l-2.61-1.07c-2.23-.93-5.34-2.26-9-3.83l-.13-.06,0-.13c-.28-1.7-.59-3.54-.91-5.44-.87-5.2-1.62-9.91-2.14-13.33-.23-1.63-.43-3-.58-4a9,9,0,0,1-.15-1.49,7.41,7.41,0,0,1,.35,1.46c.19,1,.44,2.4.75,4,.61,3.4,1.42,8.1,2.28,13.3.31,1.91.61,3.75.89,5.45l-.14-.19c3.59,1.6,6.68,3,8.87,4l2.55,1.2A4.26,4.26,0,0,1,236.43,255.45Z" style="fill:#263238"></path><path d="M342,153.59a2.58,2.58,0,0,1,.64.26l1.76.86.11.06-.05.12c-1,2.78-2.85,7.69-5,13.27-2,5.19-3.84,9.78-5,12.57l0,.13-.12,0-2.38-.52a3.19,3.19,0,0,1-.83-.24,3.27,3.27,0,0,1,.86.08l2.41.38-.17.09c1-2.84,2.78-7.46,4.79-12.65,2.17-5.58,4.12-10.46,5.25-13.18l.07.17-1.7-1A2.63,2.63,0,0,1,342,153.59Z" style="fill:#263238"></path><path d="M344.29,154.84a9.92,9.92,0,0,1-.61-1.45c-.39-1-.9-2.38-1.51-4-1.3-3.38-2.92-8.1-5.33-13.06l-6-12.79c-.72-1.58-1.32-2.89-1.79-3.89a9.06,9.06,0,0,1-.59-1.46,10.21,10.21,0,0,1,.78,1.37l1.94,3.82c1.61,3.24,3.81,7.73,6.14,12.73a121.37,121.37,0,0,1,5.2,13.16c.59,1.71,1.05,3.1,1.36,4.06A7.79,7.79,0,0,1,344.29,154.84Z" style="fill:#263238"></path><path d="M359.67,237.8s0,.09-.13.24l-.45.66-1.79,2.54,0-.07c-.06,4.91-.25,14.1-.52,25.09v.12l-.1.07-6.17,4.71c-9.94,7.58-18.75,14.25-24.08,18.23l0,0c-1.18,1.76-2.13,3.16-2.82,4.17l-.76,1.1a2.23,2.23,0,0,1-.29.36,1.76,1.76,0,0,1,.22-.41l.7-1.13,2.7-4.25,0,0,0,0c5.25-4.09,14-10.82,24-18.4l6.17-4.7-.1.19c.3-11,.59-20.17.79-25.08v0l0,0,1.88-2.46.5-.63A1,1,0,0,1,359.67,237.8Z" style="fill:#263238"></path><path d="M152.1,193.3l13.26,6.61,15.06,34,9.09-1.38-26.79,19.84,24.42,38s-28.33-20.1-33.32-50.2S152.1,193.3,152.1,193.3Z" style="fill:#fff;opacity:0.2"></path><path d="M333,229.65l11.29,6,20.38-3s7-19,6.86-33.53-19.27-50.56-19.27-50.56l-8,39.81-21.67.87-3.94,11.62Z" style="fill:#fff;opacity:0.2"></path><path d="M377.36,216.54s-.14,3-.55,8.79a122.51,122.51,0,0,1-5.3,24.73,117.84,117.84,0,0,1-19,35.23l-3.79,4.64c-1.37,1.5-2.8,3-4.23,4.53s-3,3-4.59,4.46l-2.39,2.23-2.58,2.1a117.36,117.36,0,0,1-23.74,15.26l.11-.16c-.55,9.82-1.13,20.29-1.74,31.22v.19h-.19l-102.16-2.92H207v-.23c.26-9.2.55-19.21.84-29.41l.13.23a119,119,0,0,1-30.12-22.05c-2.34-2.19-4.37-4.68-6.51-7.09-1.09-1.19-2-2.5-3-3.79l-2.95-3.88q-1.34-2-2.69-4.08c-.88-1.38-1.85-2.71-2.61-4.17-1.57-2.88-3.31-5.69-4.63-8.74a114.45,114.45,0,0,1-10.87-38.67c-.13-1.71-.27-3.41-.41-5.12l-.11-1.28v-1.29l0-2.57,0-5.17c.05-1.72.15-3.45.28-5.17a118.75,118.75,0,0,1,3.43-20.57l.1-.39.08-.28.27.1c3.72,1.46,7.33,3.09,10.93,4.72s7.17,3.29,10.71,5l.09,0,0,.09q6.6,15.72,13.06,31.07l-.29-.15,21.54-4.24h.06l.05,0L221.28,224l.15,0,0,.16q2.49,12.35,4.94,24.36l-.11-.16,10.23,6.71-.35.09,16.6-28.6.06-.1.12,0,36.37-5.25-.17.12L304.34,193l0,0,0,0,14.13-13.06.06,0H331l-.2.13,11-26.47v.14l-13.49-35.41-.21-.54.47.33a117.82,117.82,0,0,1,19,17c.67.75,1.37,1.47,2,2.23l1.85,2.29c1.23,1.51,2.47,3,3.53,4.54s2.2,3,3.2,4.55l2.86,4.56c.49.74.91,1.51,1.32,2.27s.82,1.51,1.23,2.25l1.21,2.22c.4.73.72,1.49,1.07,2.23q1.05,2.22,2,4.35c.61,1.44,1.16,2.88,1.72,4.27,1.18,2.76,1.95,5.54,2.83,8.12.46,1.29.75,2.6,1.08,3.85s.65,2.48,1,3.67a124.46,124.46,0,0,1,3,22.3c0,5.12,0,7.79,0,7.79s0-.67,0-2,0-3.26-.06-5.82a125.89,125.89,0,0,0-3-22.26,117.79,117.79,0,0,0-13.5-33.13l-2.86-4.54c-1-1.52-2.12-3-3.21-4.53s-2.3-3-3.52-4.53l-1.85-2.28c-.64-.76-1.33-1.47-2-2.22a117.68,117.68,0,0,0-18.93-16.94l.26-.2,13.53,35.4,0,.07,0,.07-10.93,26.49,0,.13h-12.5l.15-.05-14.12,13.06,0,0-15.16,28.28-.05.1-.12,0L253,226.91l.17-.12q-8.12,14-16.59,28.61l-.13.22-.22-.14L226,248.77l-.09-.06,0-.1q-2.43-12-4.94-24.36l.18.2-16.94-4.24h.11l-21.54,4.23-.2.05-.08-.2Q176,209,169.43,193.23l.13.14c-7.09-3.33-14.24-6.73-21.61-9.68l.35-.18-.1.39a116.79,116.79,0,0,0-3.42,20.48c-.13,1.72-.23,3.43-.28,5.15l0,5.14,0,2.57v1.28l.11,1.27c.13,1.7.27,3.4.41,5.1a113.79,113.79,0,0,0,10.81,38.5c1.32,3,3,5.83,4.61,8.7.76,1.46,1.72,2.78,2.6,4.15s1.78,2.72,2.68,4.07,1.95,2.58,2.93,3.86,1.92,2.59,3,3.77c2.13,2.41,4.15,4.89,6.47,7.07a118.61,118.61,0,0,0,30,22l.14.07v.16c-.3,10.19-.59,20.21-.86,29.4l-.23-.24,102.16,3-.2.18c.61-10.92,1.21-21.39,1.76-31.21v-.11l.1,0A117.72,117.72,0,0,0,334.75,303l2.57-2.09,2.39-2.23c1.56-1.49,3.19-2.86,4.58-4.43s2.86-3,4.22-4.51l3.8-4.62a118.35,118.35,0,0,0,19-35.12,124.11,124.11,0,0,0,5.39-24.68c.25-2.87.36-5.07.48-6.55S377.36,216.54,377.36,216.54Z" style="fill:#263238"></path><polygon points="149.69 185.67 168.17 195.19 181.71 226.84 204.27 222.41 219.86 225.82 223.9 249.84 236.01 255.2 226.16 248.56 221.31 224.32 204.27 219.97 182.73 224.2 169.67 193.13 148.04 183.19 149.69 185.67" style="opacity:0.30000000000000004"></polygon><g style="opacity:0.4"><polygon points="359.67 237.8 357.21 241.16 356.56 266.25 326.37 289.27 322.62 294.98 324.87 288.23 355 264.86 355.7 241.16 359.67 237.8"></polygon></g><path d="M243,255.2l13.15-24.37,33.07-6.77s-10.56,16.13-11.08,15.57S243,255.2,243,255.2Z" style="fill:#fff;opacity:0.2"></path><path d="M200.47,270.68a3.37,3.37,0,0,1-.05-.54c0-.41,0-.92-.06-1.54,0-1.41-.07-3.32-.11-5.65s-.08-5.24-.12-8.37a3.15,3.15,0,0,0-.72-2.08,4.43,4.43,0,0,0-2.14-1l-5.14-1.35-2-.53-.13,0,0-.12c-2.38-6.33-4.5-12-6.07-16.13-.72-2-1.32-3.64-1.76-4.85l-.45-1.32a1.37,1.37,0,0,1-.12-.47,2,2,0,0,1,.21.44c.15.34.33.77.54,1.28l1.92,4.79c1.6,4.14,3.77,9.77,6.21,16.07l-.18-.15,2,.53L197.4,251a4.87,4.87,0,0,1,2.37,1.15,3.61,3.61,0,0,1,.84,2.39c0,3.18,0,6,0,8.4s0,4.24-.05,5.65c0,.62,0,1.13,0,1.54A1.8,1.8,0,0,1,200.47,270.68Z" style="fill:#263238"></path><path d="M284.25,250.27a6.07,6.07,0,0,1,.12-1.22c.1-.79.28-1.91.53-3.3.48-2.78,1.25-6.61,2.25-10.8S289.2,227,290,224.3c.41-1.35.76-2.43,1-3.18a5.91,5.91,0,0,1,.45-1.14,5.9,5.9,0,0,1-.26,1.2c-.23.86-.51,1.94-.86,3.22-.73,2.73-1.72,6.49-2.72,10.67s-1.81,8-2.39,10.75c-.27,1.29-.51,2.38-.69,3.26A5.09,5.09,0,0,1,284.25,250.27Z" style="fill:#263238"></path><path d="M161.14,260.68a4.08,4.08,0,0,1-.31-.61l-.78-1.79c-.34-.77-.72-1.74-1.13-2.87s-.91-2.41-1.37-3.85c-1-2.86-2-6.35-2.92-10.23s-1.77-8.22-2.45-12.8-1-9-1.24-13-.16-7.62,0-10.64c0-.76.07-1.48.12-2.16s.13-1.32.19-1.92c.11-1.2.22-2.23.36-3.06l.31-1.93a4.54,4.54,0,0,1,.14-.66,2.91,2.91,0,0,1,0,.68c-.06.49-.13,1.13-.21,1.93s-.2,1.87-.28,3.07c-.05.6-.1,1.24-.15,1.91s-.05,1.4-.08,2.15c-.16,3-.09,6.62.07,10.6s.64,8.36,1.28,12.93,1.51,8.87,2.39,12.76,1.87,7.36,2.81,10.23c.44,1.44.88,2.73,1.29,3.86s.73,2.11,1.05,2.9.51,1.35.69,1.82A4.56,4.56,0,0,1,161.14,260.68Z" style="fill:#fff"></path><path d="M207.06,225.48c0,.14-4.64,1.56-10.45,3.17s-10.55,2.81-10.59,2.67,4.64-1.56,10.45-3.17S207,225.34,207.06,225.48Z" style="fill:#fff"></path><path d="M279.74,226.85a1.65,1.65,0,0,1-.5.16l-1.46.36-5.36,1.21-8,1.74-4.71,1a10.87,10.87,0,0,0-2.37.74,5.62,5.62,0,0,0-2,1.56,43,43,0,0,0-2.75,4.32c-.85,1.44-1.68,2.82-2.47,4.14l-4.21,7-2.88,4.69-.81,1.26c-.19.29-.29.43-.31.42a2.53,2.53,0,0,1,.22-.47c.2-.35.43-.79.72-1.31l2.74-4.78,4.12-7,2.44-4.16a42.26,42.26,0,0,1,2.79-4.4,6.24,6.24,0,0,1,2.13-1.69,11.62,11.62,0,0,1,2.48-.77l4.72-1,8-1.63,5.4-1.05,1.48-.26A3.13,3.13,0,0,1,279.74,226.85Z" style="fill:#fff"></path><path d="M319.59,182.19a98.22,98.22,0,0,1-6.83,7.62c-3.89,4.11-7.12,7.36-7.22,7.26a99.4,99.4,0,0,1,6.84-7.62A101.68,101.68,0,0,1,319.59,182.19Z" style="fill:#fff"></path><path d="M334.61,183.37a48.27,48.27,0,0,1-7,.06,47,47,0,0,1-7-.47,48.14,48.14,0,0,1,7-.06A47.15,47.15,0,0,1,334.61,183.37Z" style="fill:#fff"></path><g id="freepik--2ggvdetif--inject-5"><path d="M233.67,420.23a31.45,31.45,0,0,1,6.5,6.11,6.86,6.86,0,0,0,5.36,2.73l20.56.58a6.9,6.9,0,0,0,5.84-2.87c1.57-2.2,4.34-4.77,7.18-5.27Z" style="fill:#455a64"></path></g><path d="M213,362.35c0,.42,3.85,32.66,5.33,45a15.13,15.13,0,0,0,8.17,11.88,14,14,0,0,0,5.82,1.45l45,1.26s11.75.34,14.67-8.91c3.08-9.74,9.48-48.17,9.48-48.17Z" style="fill:#263238"></path><path d="M295,408.8l-78.35-1.94a2.22,2.22,0,0,1-2.17-2.28v-.24a2.23,2.23,0,0,1,2.28-2.18l78.35,1.93a2.23,2.23,0,0,1,2.17,2.29v.24A2.23,2.23,0,0,1,295,408.8Z" style="fill:#e0e0e0"></path><path d="M295,408.8a2.61,2.61,0,0,0,1.53-.67,2.23,2.23,0,0,0,.64-1.85,2.1,2.1,0,0,0-1.58-2c-4.25-.17-10.58-.2-18.31-.39l-60.51-1.38a1.86,1.86,0,0,0-1.89,1.64,2.69,2.69,0,0,0,0,.95,1.87,1.87,0,0,0,1.2,1.26,10.65,10.65,0,0,0,2,.13l8.5.22,16.07.42,27.2.75,18.34.57,5,.2,1.3.07a1.53,1.53,0,0,1,.44.05,2.12,2.12,0,0,1-.44,0h-1.3l-5-.05-18.34-.33-27.21-.59-16.07-.38-8.5-.2-1.08,0a3.87,3.87,0,0,1-1.18-.14,2.62,2.62,0,0,1-1.69-1.78,3.45,3.45,0,0,1-.08-1.23,2.66,2.66,0,0,1,.45-1.19,2.61,2.61,0,0,1,2.21-1.13l60.52,1.61c7.75.25,14,.35,18.36.63a2.36,2.36,0,0,1,1.74,2.25,2.44,2.44,0,0,1-.76,2A2,2,0,0,1,295,408.8Z" style="fill:#263238"></path><path d="M296.92,398.72l-81.66-2a2.22,2.22,0,0,1-2.17-2.28v-.25a2.23,2.23,0,0,1,2.29-2.17L297,394a2.23,2.23,0,0,1,2.17,2.29v.24A2.23,2.23,0,0,1,296.92,398.72Z" style="fill:#e0e0e0"></path><path d="M296.92,398.72a2.41,2.41,0,0,0,1.58-.71,2.33,2.33,0,0,0,.59-1.95,2.1,2.1,0,0,0-1.82-1.87l-19-.36-62.87-1.44a1.84,1.84,0,0,0-1.61.86,1.73,1.73,0,0,0-.28.89,2.19,2.19,0,0,0,.1,1,1.83,1.83,0,0,0,1.36,1.18c.61.08,1.46,0,2.17.09l8.83.22,16.69.43,28.26.78,19.05.59,5.18.2,1.35.07a2.08,2.08,0,0,1,.45.05,1.33,1.33,0,0,1-.46,0h-1.34l-5.19-.06-19.05-.35-28.26-.62-16.7-.38-8.82-.22c-.78,0-1.44,0-2.32-.1a2.61,2.61,0,0,1-1.92-1.66,3,3,0,0,1-.14-1.27,2.53,2.53,0,0,1,.4-1.26,2.6,2.6,0,0,1,2.27-1.21l62.86,1.66c8.05.24,14.54.42,19.07.61a2.37,2.37,0,0,1,2,2.14,2.51,2.51,0,0,1-.71,2.08A2,2,0,0,1,296.92,398.72Z" style="fill:#263238"></path><path d="M298.27,388.64l-83.78-2.07a2.23,2.23,0,0,1-2.18-2.28V384a2.22,2.22,0,0,1,2.28-2.17l83.78,2.07a2.23,2.23,0,0,1,2.18,2.28v.24A2.23,2.23,0,0,1,298.27,388.64Z" style="fill:#e0e0e0"></path><path d="M298.27,388.64a2.49,2.49,0,0,0,1.6-.74,2.37,2.37,0,0,0,.55-2,2.1,2.1,0,0,0-2-1.8l-19.5-.36-64.36-1.48a1.85,1.85,0,0,0-1.63.89,1.9,1.9,0,0,0-.27.93,2.11,2.11,0,0,0,.14,1,1.86,1.86,0,0,0,1.46,1.12c.68,0,1.51,0,2.26.06l9,.23,17.08.45,28.94.79,19.5.6,5.3.2,1.38.08a1.74,1.74,0,0,1,.47.05,2.42,2.42,0,0,1-.47,0h-1.38l-5.31-.06-19.51-.36-28.93-.63-17.09-.4-9-.22c-.78,0-1.49,0-2.34-.07a2.63,2.63,0,0,1-2.06-1.58,2.88,2.88,0,0,1-.2-1.3,2.62,2.62,0,0,1,2.68-2.56l64.35,1.7,19.51.61a2.35,2.35,0,0,1,2.17,2.06A2.51,2.51,0,0,1,300,388,2,2,0,0,1,298.27,388.64Z" style="fill:#263238"></path><path d="M300.25,378.57l-87.18-2.15a2.23,2.23,0,0,1-2.17-2.29v-.24a2.22,2.22,0,0,1,2.28-2.17l87.18,2.14a2.24,2.24,0,0,1,2.17,2.29v.24A2.23,2.23,0,0,1,300.25,378.57Z" style="fill:#e0e0e0"></path><path d="M300.25,378.57a2.51,2.51,0,0,0,1.65-.79,2.43,2.43,0,0,0,.48-2.11,2.11,2.11,0,0,0-2.19-1.66L280,373.63l-66.77-1.53a1.84,1.84,0,0,0-1.66.95,2.33,2.33,0,0,0,0,2,1.89,1.89,0,0,0,1.62,1l2.39.06,9.38.23,17.72.46,30,.83,20.24.62,5.49.2,1.44.08a1.78,1.78,0,0,1,.48.05,2.56,2.56,0,0,1-.49,0h-1.43l-5.5-.07-20.24-.38-30-.66-17.72-.41-9.38-.23-2.39-.05a2.62,2.62,0,0,1-2.27-1.42,2.7,2.7,0,0,1-.29-1.35,2.8,2.8,0,0,1,.33-1.34,2.61,2.61,0,0,1,2.35-1.35L280,373.09l20.23.62a2.39,2.39,0,0,1,2.42,1.92,2.61,2.61,0,0,1-.59,2.25,2.23,2.23,0,0,1-1.28.68A1.41,1.41,0,0,1,300.25,378.57Z" style="fill:#263238"></path><path d="M202.48,334.31c0,.83,1.28,20.55,2,30.67a12.14,12.14,0,0,0,5.25,9.22l4.5,3.1,86.94,2.45,4.61-2.8a12.18,12.18,0,0,0,5.78-9L315,337.48Z" style="fill:#F9C728"></path><g style="opacity:0.30000000000000004"><path d="M219.55,406.74c8.32,2.13,16.67,2.53,25.86,2.75,7.42.17,14.7.58,22.76.64,5.9.05,11.35-.1,17.24-.18,3-.05,6.27-.71,6.88-1.29Z"></path></g><g style="opacity:0.30000000000000004"><path d="M216.74,396.5c9,2.15,18,2.57,27.88,2.81,8,.19,15.84.61,24.53.69,6.37.06,12.23-.07,18.59-.15,3.21,0,6.75-.69,7.41-1.27Z"></path></g><g style="opacity:0.30000000000000004"><path d="M217,386.46c9,2.15,18,2.57,27.88,2.81,8,.19,15.84.61,24.53.69,6.37.06,12.24-.07,18.59-.15,3.22,0,6.75-.69,7.42-1.27Z"></path></g><g style="opacity:0.30000000000000004"><path d="M217.3,376.42c9,2.15,18,2.57,27.88,2.81,8,.19,15.85.61,24.54.69,6.36.06,12.23-.07,18.58-.15,3.22,0,6.76-.69,7.42-1.27Z"></path></g><g style="opacity:0.30000000000000004"><path d="M202.48,334.31c0,.83,1.28,20.55,2,30.67a12.14,12.14,0,0,0,5.25,9.22l4.5,3.1,86.94,2.45,4.61-2.8a12.18,12.18,0,0,0,5.78-9L315,337.48Z"></path></g><path d="M309.26,372c0,.21-23.27-.27-51.95-1.08s-51.93-1.64-51.93-1.85,23.26.28,51.95,1.09S309.27,371.83,309.26,372Z" style="fill:#263238"></path><path d="M314.35,336.89c0,.23-25.26-.2-56.42-.95s-56.42-1.56-56.42-1.79,25.25.19,56.42,1S314.35,336.65,314.35,336.89Z" style="fill:#263238"></path><path d="M132.65,163.44c-.26-.38-10.06,7.24-10.06,7.24l13.14,4.22S137,169.87,132.65,163.44Z" style="fill:#F9C728"></path><path d="M185.3,191.46a39.09,39.09,0,0,0-3.58,2.58l4.67,1.5A5.46,5.46,0,0,0,185.3,191.46Z" style="fill:#F9C728"></path><path d="M227.81,103.48a39.09,39.09,0,0,0-3.58,2.58l4.68,1.5A5.5,5.5,0,0,0,227.81,103.48Z" style="fill:#F9C728"></path><path d="M224.23,106.06c.16,0,4.15.69,4.24.65a4.46,4.46,0,0,0,.39-.8,5.11,5.11,0,0,1,0,1.65Z" style="opacity:0.30000000000000004"></path><path d="M311.15,70.44c-.43.85-15.94,12.77-15.94,12.77s16.15,24,15.94,23.41,4-23.41,4.68-23.41,16.83-8.94,16.83-8.94Z" style="fill:#F9C728"></path><polygon points="295.21 83.21 310.29 102.38 315.62 83.6 311.15 106.62 295.21 83.21" style="opacity:0.30000000000000004"></polygon><path d="M345.46,87.49l-4.22,23.32s11.39,5.55,11.94,5.44,6.61-12.42,6.61-12.42l-5-18.91Z" style="fill:#F9C728"></path><path d="M346.36,87.24l-4,22.36h2.73l2.13,2.49,6.52,3.35a2.78,2.78,0,0,1-.59.81c-.83,0-7.51-3.36-11.94-5.44l4.22-23.32Z" style="opacity:0.30000000000000004"></path><path d="M168.73,58.05l-2.11,11.66s5.69,2.78,6,2.72,3.3-6.2,3.3-6.2l-2.51-9.46Z" style="fill:#F9C728"></path><path d="M169.18,57.93l-2,11.18h1.37l1.06,1.24L172.88,72a1.33,1.33,0,0,1-.29.4,60.93,60.93,0,0,1-6-2.72l2.11-11.66Z" style="opacity:0.30000000000000004"></path><path d="M133,146.91c16-50.8,50.8-64.15,50.8-64.15L206.4,101.3l20,26-7.28,27.6-28.95,17.26-25.65.37-11.12-17.63L133,148.81Z" style="fill:#F9C728"></path><polygon points="132.98 146.91 154.45 153.48 165.12 170.23 164.5 172.49 153.38 154.85 132.98 148.81 132.98 146.91" style="opacity:0.30000000000000004"></polygon><path d="M181.72,86c-1,.07-26.72,22.25-27.84,27.44l27.6,25,19.37-18.08-4.3-20.1Z" style="fill:#fff;opacity:0.2"></path><polygon points="219.1 154.85 190.23 169.73 165.12 170.23 164.5 172.49 190.15 172.12 219.1 154.85" style="opacity:0.30000000000000004"></polygon><path d="M153.38,154.86a7.83,7.83,0,0,1,1-1.46l.06.21c-2-.53-5.71-1.62-9.94-2.91-3.19-1-6.07-1.89-8.15-2.58a23.42,23.42,0,0,1-3.34-1.21,22.72,22.72,0,0,1,3.44.86c2.11.6,5,1.45,8.21,2.43,4.22,1.3,7.9,2.48,9.86,3.16l.19.06-.12.15A10.13,10.13,0,0,1,153.38,154.86Z" style="fill:#263238"></path><path d="M219.1,154.85a2.78,2.78,0,0,1-.55.34l-1.61.89-6.06,3.2L190.35,170l0,0h-.06l-5.92.12-19.2.34H165l-.06-.11-7.4-11.78-2-3.33-.52-.88a1.06,1.06,0,0,1-.16-.32,2.14,2.14,0,0,1,.22.28c.15.23.34.51.58.85.52.8,1.24,1.89,2.14,3.25l7.56,11.69-.2-.11,19.2-.41,5.92-.11-.11,0L210.73,159l6.12-3.07,1.66-.8A4.32,4.32,0,0,1,219.1,154.85Z" style="fill:#263238"></path><path d="M181.45,87a3.86,3.86,0,0,1-.56.45l-1.64,1.2c-.73.51-1.61,1.14-2.59,1.92s-2.15,1.62-3.35,2.65-2.57,2.1-3.94,3.35-2.83,2.61-4.34,4A118.68,118.68,0,0,0,148,121.78c-1.09,1.78-2.16,3.46-3,5.09s-1.73,3.15-2.45,4.56-1.33,2.7-1.88,3.83-1,2.12-1.34,2.93l-.82,1.87a3.21,3.21,0,0,1-.33.63,4.57,4.57,0,0,1,.23-.67c.19-.49.43-1.12.74-1.91s.72-1.83,1.25-3,1.09-2.47,1.82-3.88,1.48-3,2.41-4.6,1.93-3.34,3-5.14a123.73,123.73,0,0,1,7.92-11.12,122.07,122.07,0,0,1,9.21-10.08c1.52-1.44,3-2.83,4.39-4s2.74-2.33,4-3.32,2.4-1.84,3.41-2.59,1.91-1.37,2.65-1.86l1.71-1.12A3.23,3.23,0,0,1,181.45,87Z" style="fill:#fff"></path><path d="M195,78.09c-.63.69,18.94,16,18.94,16l1.78-27.53S205.39,66.54,195,78.09Z" style="fill:#F9C728"></path><path d="M197.61,77.47s7.66-6.3,14.14-8.35l-4.6,14.09Z" style="fill:#fff;opacity:0.2"></path><path d="M210.45,69.17c.06.15-3.2,1.28-6.76,3.54s-6,4.68-6.12,4.56a7.76,7.76,0,0,1,1.51-1.68,29.14,29.14,0,0,1,4.33-3.32,28.51,28.51,0,0,1,4.88-2.46A7.73,7.73,0,0,1,210.45,69.17Z" style="fill:#fff"></path><path d="M235.9,47.35s25.51-10.65,49.79,0l-2.62,29.9-31.72,21L235.9,79.91Z" style="fill:#F9C728"></path><path d="M235.9,79.91l15.23,15.31,5.93-5.37L262,88.53s18.93-12,19.07-12.39S285.69,48,285.69,48l-2.62,29.23-31.72,21Z" style="opacity:0.30000000000000004"></path><polygon points="245.94 90 245.94 82.76 253.62 76.43 255.47 56.77 251.94 75.42 244.38 82.76 243.34 87.39 245.94 90" style="opacity:0.30000000000000004"></polygon><path d="M240.29,48.65l-1,7.15-.79,14,2.86,9.72,8-5.7,4.94-21.23,1.17-6.47S242.44,48.46,240.29,48.65Z" style="fill:#fff;opacity:0.2"></path><path d="M283.07,77.25a2,2,0,0,1-.54-.23l-1.5-.78h.12c-2.73,1.87-8.53,5.71-15.26,10.08l-3.74,2.43,0,0h0l-4.95,1.29.09,0-5.77,5,.05-.11c0,1-.05,1.82-.07,2.48a3.49,3.49,0,0,1-.07.87,3.73,3.73,0,0,1-.08-.87c0-.66,0-1.48-.06-2.48v-.06l0,0,5.66-5.14,0,0,.05,0,4.94-1.33-.07,0,3.73-2.43c6.73-4.38,12.6-8.12,15.42-9.85l.06,0,.06,0,1.45.87A2.49,2.49,0,0,1,283.07,77.25Z" style="fill:#263238"></path><path d="M285.08,48.14c.14,0-.58,5.9-1.61,13.13s-2,13.08-2.14,13.06.59-5.9,1.62-13.13S284.94,48.12,285.08,48.14Z" style="fill:#263238"></path><path d="M269.33,44.7a5.5,5.5,0,0,1-1.19,0c-.76,0-1.87-.07-3.24-.09a77.18,77.18,0,0,0-21.1,2.6c-1.32.35-2.38.65-3.12.87a5.74,5.74,0,0,1-1.15.28,4.94,4.94,0,0,1,1.09-.47c.72-.28,1.77-.64,3.08-1a63.78,63.78,0,0,1,10.5-2.19,65.18,65.18,0,0,1,10.71-.43c1.38.07,2.48.16,3.24.25A5.13,5.13,0,0,1,269.33,44.7Z" style="fill:#fff"></path><path d="M256.78,74.25A26.09,26.09,0,0,1,257,69a26,26,0,0,1,.73-5.21,27.87,27.87,0,0,1-.21,5.25A27.29,27.29,0,0,1,256.78,74.25Z" style="fill:#fff"></path><polygon points="266.69 111.14 239 133.2 233.6 158.78 250.14 180.61 280.3 175.21 295.32 148.1 284.67 113.26 273.02 100.58 266.69 111.14" style="fill:#F9C728"></polygon><path d="M239,133.2c-.14.63-2.72,23.7-2.72,23.7l12.15-5.51,3.91-5.19L249.21,151l1.6-.73-12.68,9.3,12.33,18L280,172.93l15.33-24.83-15,27.11-30.16,5.4L233.6,158.78Z" style="opacity:0.30000000000000004"></path><path d="M241.2,150.54c-.19-1-1.13-15,1.13-16.52s24.59-19.28,24.59-19.28l6.95-9.87s.94,14.73-1.88,19.1-14.09,17.64-14.56,18.33-1.58-4.94-1.58-4.94L247,148.62Z" style="fill:#fff;opacity:0.2"></path><path d="M292,151.91l-5.46-9.61-31.09,20.48s-5,14.58-4.72,15.38L280,172.93l12-21" style="opacity:0.2"></path><path d="M236.28,156.9c-.06,0,.51-5.31,1.26-11.86s1.4-11.84,1.46-11.84-.51,5.32-1.26,11.87S236.34,156.91,236.28,156.9Z"></path><path d="M266.69,111.14s.12-.25.39-.72.69-1.17,1.2-2.06l4.64-7.84.08-.14.11.12,11.69,12.64,0,0v0L295.55,148l0,.1-.05.09-15,27.11-.06.11-.13,0-11.12,2-19,3.4-.16,0-.09-.13-16.53-21.84-.06-.08,0-.11c2-9.43,3.84-18,5.44-25.57v-.06l.06,0L259.17,117l5.55-4.35,1.46-1.12c.33-.26.51-.38.51-.38s-.15.15-.47.41l-1.41,1.16-5.48,4.43-20.21,16.21.07-.11c-1.58,7.55-3.38,16.15-5.36,25.59l0-.19,16.56,21.81-.25-.1,19-3.41,11.12-2-.18.13,15-27.1,0,.19L284.5,113.32l0,.06-11.6-12.71.19,0c-2.05,3.35-3.65,6-4.75,7.79l-1.25,2C266.85,110.92,266.69,111.14,266.69,111.14Z" style="fill:#263238"></path><path d="M266.29,116a5.65,5.65,0,0,1-1,.81l-2.77,2.08c-2.35,1.75-5.58,4.18-9.08,7s-6.6,5.36-8.84,7.24L242,135.28a6.7,6.7,0,0,1-1,.78,5.34,5.34,0,0,1,.88-.93c.59-.57,1.46-1.38,2.55-2.36,2.17-2,5.25-4.59,8.76-7.37s6.77-5.18,9.18-6.85c1.2-.84,2.19-1.5,2.88-1.94A5.79,5.79,0,0,1,266.29,116Z" style="fill:#fff"></path><path d="M383.2,271.18l-1.41,3.47s3.79.83,4,.81a25.72,25.72,0,0,0,2.2-1.85l-1.67-2.81Z" style="fill:#F9C728"></path><path d="M383.49,271.15l-1.32,3.32h.91l.71.37,2.17.5a.59.59,0,0,1-.2.12c-.27,0-2.49-.5-4-.81l1.41-3.47Z" style="opacity:0.30000000000000004"></path><polygon points="407.49 253.69 393.37 247.51 396.98 272.04 387.75 288.39 389.93 300.06 420.06 276.69 420.75 252.99 407.49 253.69" style="fill:#F9C728"></polygon><path d="M406.42,233.54l-3,7.45s8.15,1.78,8.54,1.74,4.73-4,4.73-4l-3.59-6.05Z" style="fill:#F9C728"></path><path d="M407.06,233.46l-2.84,7.15h1.95l1.52.79,4.67,1.07a1.5,1.5,0,0,1-.43.26c-.59,0-5.36-1.07-8.54-1.74l3-7.45Z" style="opacity:0.30000000000000004"></path><polygon points="389.93 300.06 389.93 287.63 398.91 272.32 395.72 249.6 393.37 247.51 396.98 272.04 387.75 288.39 389.93 300.06" style="opacity:0.4"></polygon></g><g id="freepik--light-bulb-1--inject-5"><polygon points="138.22 358.23 127.72 346.31 106.5 349.19 91.39 335.44 69.78 332.93 70.28 353.11 45.73 349.23 42.59 364.05 76.78 394.61 112.68 396.51 132.39 382.57 138.22 358.23" style="fill:#F9C728"></polygon><polygon points="138.22 358.23 127.72 346.31 106.5 349.19 91.39 335.44 69.78 332.93 70.28 353.11 45.73 349.23 42.59 364.05 76.78 394.61 112.68 396.51 132.39 382.57 138.22 358.23" style="opacity:0.2"></polygon><path d="M50.69,395.23a64.3,64.3,0,0,1-6.09-60.32l4.11,20.51,12.9,9.15,5.77-3.64,10.43,1.95,15.77,8.95,18.17-8.45,16.17,8.48,2.8-6.15-4.85-12.83,6.67-7,11.3-4.36-3-18.35s4.88-7.72,7.25-10.89a64.37,64.37,0,0,1,11.31,80.12l9,13.49-46.84,31.43s-5.36-7.38-10-14.07A64.32,64.32,0,0,1,50.69,395.23Z" style="fill:#F9C728"></path><path d="M139.89,426.32c-12.44-18.49-23.64-37.78-36.37-56.07-2.6-3.73-5.26-7.42-8.12-10.94-3.7-4.57-8.22-9.48-14.53-9.7a10,10,0,0,0-7.39,2.67,10.45,10.45,0,0,0-2.6,8.31c.46,5.81,3.4,11.41,7.15,15.76,7.62,8.84,19.66,13.14,31.07,10.35S130,375,132.64,363.59c2.57-11-1-24.41-10.16-31.57-4.22-3.3-10.86-5.65-15.56-1.91s-3.71,10.43-1.81,15.4c2,5.39,5,10.5,7.81,15.52,3.15,5.66,6.45,11.24,9.8,16.78,6.88,11.36,14,22.56,20.86,33.93q2.34,3.87,4.61,7.77a1.25,1.25,0,0,0,2.16-1.26c-12.14-20.88-25.81-40.86-37.27-62.14-2.53-4.7-5.45-9.57-6.66-14.81-.56-2.39-.77-5.15.47-7.38a6.51,6.51,0,0,1,6.25-3.2c5.56.28,10.14,4.72,13,9.13a30.51,30.51,0,0,1,4.8,15.3,28.94,28.94,0,0,1-46.12,24.12,29.66,29.66,0,0,1-9.9-12.68c-1.81-4.56-3.19-12.13,2.9-14.08s11.13,3,14.68,7.2c2.67,3.16,5.11,6.5,7.5,9.87,12.1,17.1,22.79,35.17,34.24,52.71,1.15,1.77,2.31,3.54,3.49,5.29.9,1.33,3.06.08,2.16-1.26Z" style="fill:#263238"></path><g id="freepik--2ggvdetif--inject-5"><path d="M176.18,448.83a17.67,17.67,0,0,0-1.24,4.77,3.79,3.79,0,0,1-1.7,2.85l-9.43,6.32a3.84,3.84,0,0,1-3.57.37,7.16,7.16,0,0,0-4.91-.35Z" style="fill:#455a64"></path></g><path d="M168.8,415.73c.12.19,7.8,16.39,10.74,22.58a8.39,8.39,0,0,1-.32,7.95,7.83,7.83,0,0,1-2.29,2.39c-4.05,2.7-20.63,13.81-20.63,13.81s-5.39,3.62-9.48.16c-4.3-3.64-18.6-19.71-18.6-19.71Z" style="fill:#263238"></path><rect x="138.62" y="447.17" width="45.72" height="2.6" rx="1.23" transform="translate(-221.28 164.39) rotate(-33.62)" style="fill:#e0e0e0"></rect><path d="M144.18,461.52a1.36,1.36,0,0,1-.91.14,1.25,1.25,0,0,1-.84-.67,1.16,1.16,0,0,1,.16-1.39c1.93-1.33,4.88-3.21,8.43-5.56l27.86-18.45a1,1,0,0,1,1-.09,1.17,1.17,0,0,1,.4.3,1.74,1.74,0,0,1,.25.46,1,1,0,0,1-.19.94,5.36,5.36,0,0,1-.91.66l-3.91,2.6-7.38,4.93-12.48,8.35-8.4,5.66L145,461l-.59.41-.19.15s.08,0,.22-.11L145,461l2.31-1.49,8.47-5.55,12.53-8.28,7.4-4.9,3.91-2.6.5-.33a2.29,2.29,0,0,0,.51-.41,1.45,1.45,0,0,0,.26-1.33,1.75,1.75,0,0,0-.33-.6,1.38,1.38,0,0,0-.56-.42,1.43,1.43,0,0,0-1.36.12l-27.79,18.55c-3.55,2.4-6.43,4.28-8.39,5.7a1.3,1.3,0,0,0-.15,1.56,1.36,1.36,0,0,0,.94.7A1.06,1.06,0,0,0,144.18,461.52Z" style="fill:#263238"></path><rect x="134.59" y="442.53" width="47.55" height="2.6" rx="1.23" transform="translate(-219.23 161.89) rotate(-33.62)" style="fill:#e0e0e0"></rect><path d="M140.31,457.39a1.28,1.28,0,0,1-.94.13,1.25,1.25,0,0,1-.85-.73,1.16,1.16,0,0,1,.3-1.41l8.78-5.77,28.94-19.17a1,1,0,0,1,1-.07,1.06,1.06,0,0,1,.4.33,1.39,1.39,0,0,1,.24.49,1,1,0,0,1-.29.95c-.26.22-.67.45-1,.68l-4.06,2.7-7.67,5.11c-4.87,3.27-9.27,6.2-13,8.68l-8.72,5.88-2.36,1.61-.61.43-.2.16s.08,0,.23-.12l.63-.4,2.4-1.55,8.8-5.76,13-8.6,7.68-5.1,4.06-2.69c.35-.25.67-.42,1.05-.73a1.45,1.45,0,0,0,.4-1.34,1.65,1.65,0,0,0-.3-.64,1.5,1.5,0,0,0-.56-.47,1.45,1.45,0,0,0-1.41.11l-28.87,19.26c-3.69,2.48-6.67,4.47-8.73,5.89a1.3,1.3,0,0,0-.3,1.59,1.39,1.39,0,0,0,.94.77A1,1,0,0,0,140.31,457.39Z" style="fill:#263238"></path><path d="M136.72,453.08l38.52-25.61a1.24,1.24,0,0,0,.34-1.71l-.07-.11a1.23,1.23,0,0,0-1.71-.34l-38.52,25.6a1.24,1.24,0,0,0-.34,1.71l.07.11A1.24,1.24,0,0,0,136.72,453.08Z" style="fill:#e0e0e0"></path><path d="M136.72,453.08a1.41,1.41,0,0,1-1,.12,1.32,1.32,0,0,1-.85-.77,1.17,1.17,0,0,1,.39-1.42l9-5.91,29.63-19.62a1,1,0,0,1,1-.06,1,1,0,0,1,.4.35,1.22,1.22,0,0,1,.22.5,1,1,0,0,1-.35,1c-.31.22-.69.46-1,.69L170,430.69l-7.85,5.23-13.28,8.88-8.93,6-2.41,1.66-.63.43c-.14.1-.21.16-.2.17L137,453l.64-.4,2.46-1.59,9-5.91,13.33-8.81,7.86-5.21,4.16-2.76c.36-.24.69-.45,1.07-.72a1.43,1.43,0,0,0,.5-1.34,1.57,1.57,0,0,0-.29-.67,1.48,1.48,0,0,0-.56-.49,1.45,1.45,0,0,0-1.45.08l-29.55,19.73-8.94,6a1.31,1.31,0,0,0-.4,1.6,1.41,1.41,0,0,0,.94.8A1.12,1.12,0,0,0,136.72,453.08Z" style="fill:#263238"></path><rect x="126.86" y="433.25" width="50.59" height="2.6" rx="1.23" transform="translate(-215.13 156.9) rotate(-33.62)" style="fill:#e0e0e0"></rect><path d="M132.83,449a1.33,1.33,0,0,1-1,.11,1.35,1.35,0,0,1-.85-.84,1.18,1.18,0,0,1,.54-1.42l9.34-6.13,30.73-20.36a1,1,0,0,1,1.06,0,1.3,1.3,0,0,1,.6.92,1,1,0,0,1-.46.94l-1.1.73-4.31,2.87-8.14,5.43-13.78,9.21-9.26,6.24-2.51,1.71-.65.46a1.06,1.06,0,0,0-.21.17l.24-.14.67-.42,2.55-1.64c2.22-1.47,5.41-3.56,9.34-6.13l13.82-9.14,8.16-5.41,4.31-2.86,1.1-.73a1.46,1.46,0,0,0,.65-1.33,1.61,1.61,0,0,0-.27-.72,1.48,1.48,0,0,0-.55-.53,1.43,1.43,0,0,0-1.49.07L140.7,440.43l-9.27,6.24a1.31,1.31,0,0,0-.56,1.61,1.45,1.45,0,0,0,.93.88,1.15,1.15,0,0,0,1-.2Z" style="fill:#263238"></path><path d="M165.47,399.53c.26.38,5.45,10,8.12,14.9a6.72,6.72,0,0,1,.26,5.85l-1.19,2.77-39.89,26.72-3,0a6.69,6.69,0,0,1-5.36-2.52l-10.56-13.2Z" style="fill:#F9C728"></path><g style="opacity:0.30000000000000004"><path d="M178.81,438.38a62.88,62.88,0,0,1-11.27,8.89c-3.42,2.26-6.69,4.59-10.44,7-2.75,1.76-5.33,3.29-8.11,5a9,9,0,0,1-3.59,1.42Z"></path></g><g style="opacity:0.30000000000000004"><path d="M177.11,432.77a73,73,0,0,1-12.2,9.51c-3.68,2.44-7.21,5-11.25,7.54-3,1.9-5.74,3.56-8.72,5.4a10.34,10.34,0,0,1-3.84,1.58Z"></path></g><g style="opacity:0.30000000000000004"><path d="M174,428.16a71.45,71.45,0,0,1-12.19,9.51c-3.68,2.45-7.22,4.95-11.26,7.54-2.95,1.9-5.73,3.57-8.72,5.4A10.35,10.35,0,0,1,138,452.2Z"></path></g><g style="opacity:0.30000000000000004"><path d="M170.94,423.56a73,73,0,0,1-12.2,9.51c-3.68,2.44-7.22,4.94-11.25,7.54-3,1.9-5.74,3.56-8.73,5.39a10.15,10.15,0,0,1-3.83,1.59Z"></path></g><g style="opacity:0.30000000000000004"><path d="M165.47,399.53c.26.38,5.45,10,8.12,14.9a6.72,6.72,0,0,1,.26,5.85l-1.19,2.77-39.89,26.72-3,0a6.69,6.69,0,0,1-5.36-2.52l-10.56-13.2Z"></path></g><path d="M126.7,448.56c.07.09,10.79-7,24-15.79s23.77-16,23.71-16.13-10.79,7-24,15.78S126.64,448.46,126.7,448.56Z" style="fill:#263238"></path><path d="M114,433.64c.06.11,11.74-7.52,26.07-17s25.89-17.32,25.82-17.43-11.74,7.51-26.07,17S113.92,433.53,114,433.64Z" style="fill:#263238"></path><polygon points="67.38 360.93 77.81 362.88 93.58 371.83 111.75 363.38 126.7 371.22 130.03 364.05 126.7 352.62 132.53 345.92 142.75 352.94 141.14 381.91 153.64 407.06 127.94 424.67 95.91 391.18 74.18 385.29 65 364.72 67.38 360.93" style="fill:#F9C728;opacity:0.6000000000000001"></polygon></g></svg>