<svg width="1440" height="779" viewBox="0 0 1440 779" fill="none" xmlns="http://www.w3.org/2000/svg">
<path d="M-16.8804 110.868C958.254 303.3 1139.56 -78.3165 1501.6 14.9363C1501.6 14.9363 2247.43 899.055 1441.62 797.869C635.808 696.684 258.573 634.094 -70 797.869L-16.8804 110.868Z" fill="#FFC096"/>
<g filter="url(#filter0_d_226_1000)">
<path d="M-16.8804 149.868C958.254 342.3 1139.56 -39.3165 1501.6 53.9363C1501.6 53.9363 2247.43 938.055 1441.62 836.869C635.808 735.684 258.573 673.094 -70 836.869L-16.8804 149.868Z" fill="#FFA56A"/>
</g>
<path d="M6.00049 209C981.135 401.432 1162.45 19.8154 1524.49 113.068C1524.49 113.068 2270.31 997.187 1464.5 896.001C658.688 794.815 281.454 732.226 -47.1191 896.001L6.00049 209Z" fill="#FF8B3E"/>
<defs>
<filter id="filter0_d_226_1000" x="-74" y="39" width="1894" height="813.936" filterUnits="userSpaceOnUse" color-interpolation-filters="sRGB">
<feFlood flood-opacity="0" result="BackgroundImageFix"/>
<feColorMatrix in="SourceAlpha" type="matrix" values="0 0 0 0 0 0 0 0 0 0 0 0 0 0 0 0 0 0 127 0" result="hardAlpha"/>
<feOffset dy="4"/>
<feGaussianBlur stdDeviation="2"/>
<feComposite in2="hardAlpha" operator="out"/>
<feColorMatrix type="matrix" values="0 0 0 0 0 0 0 0 0 0 0 0 0 0 0 0 0 0 0.25 0"/>
<feBlend mode="normal" in2="BackgroundImageFix" result="effect1_dropShadow_226_1000"/>
<feBlend mode="normal" in="SourceGraphic" in2="effect1_dropShadow_226_1000" result="shape"/>
</filter>
</defs>
</svg>
